<?xml version="1.0" encoding="utf-8"?>
<!-- Generator: Adobe Illustrator 24.2.0, SVG Export Plug-In . SVG Version: 6.00 Build 0)  -->
<svg version="1.1" id="Camada_1" xmlns="http://www.w3.org/2000/svg" xmlns:xlink="http://www.w3.org/1999/xlink" x="0px" y="0px"
	 viewBox="0 0 899.89 238.05" style="enable-background:new 0 0 899.89 238.05;" xml:space="preserve">
<style type="text/css">
	.st0{stroke:#000000;stroke-miterlimit:10;}
</style>
<g>
	<path class="st0" d="M110.81,152.22L129.18,0h104.98v142.6H198c0,0-1.75-0.29-2.33,0.87c-0.58,1.17-58.61,85.25-58.61,85.25
		s-2.72,9.33-15.16,9.33s-55.21,0-55.21,0H0V0h108.19L110.81,152.22z"/>
	<rect x="246.34" class="st0" width="108.08" height="238.05"/>
	<path class="st0" d="M477.42,152.22L495.79,0h104.98v142.6h-36.16c0,0-1.75-0.29-2.33,0.87c-0.58,1.17-58.61,85.25-58.61,85.25
		s-2.72,9.33-15.16,9.33c-12.44,0-55.21,0-55.21,0h-66.68V0h108.19L477.42,152.22z"/>
	<path class="st0" d="M717.93,236.69H577.96L667.19,1.36h146.09l40.24,110.23L723.95,121.6c0,0-8.55,0.78-11.66-9.33
		c-3.11-10.11-14.39-41.99-14.39-41.99s-5.44-2.72-4.28,1.56c1.17,4.28,15.94,45.49,15.94,45.49s3.89,6.61,10.11,7.39
		c6.22,0.78,141.91,7,141.91,7l38.3,104.98H759.33l-20.41-53.66L717.93,236.69z"/>
</g>
</svg>
