<?xml version="1.0" encoding="utf-8"?>
<!-- Generator: Adobe Illustrator 24.2.0, SVG Export Plug-In . SVG Version: 6.00 Build 0)  -->
<svg version="1.1" id="Camada_1" xmlns="http://www.w3.org/2000/svg" xmlns:xlink="http://www.w3.org/1999/xlink" x="0px" y="0px"
	 viewBox="0 0 899.9 238.1" style="enable-background:new 0 0 899.9 238.1;" xml:space="preserve">
<style type="text/css">
	.st0{fill:#FFFFFF;}
</style>
<g>
	<path class="st0" d="M110.8,152.2L129.2,0h105v142.6H198c0,0-1.8-0.3-2.3,0.9c-0.6,1.2-58.6,85.3-58.6,85.3s-2.7,9.3-15.2,9.3
		s-55.2,0-55.2,0H0V0h108.2L110.8,152.2z"/>
	<rect x="246.3" class="st0" width="108.1" height="238.1"/>
	<path class="st0" d="M477.4,152.2L495.8,0h105v142.6h-36.2c0,0-1.8-0.3-2.3,0.9c-0.6,1.2-58.6,85.3-58.6,85.3s-2.7,9.3-15.2,9.3
		s-55.2,0-55.2,0h-66.7V0h108.2L477.4,152.2z"/>
	<path class="st0" d="M717.9,236.7H578L667.2,1.4h146.1l40.2,110.2l-129.6,10c0,0-8.5,0.8-11.7-9.3s-14.4-42-14.4-42
		s-5.4-2.7-4.3,1.6c1.2,4.3,15.9,45.5,15.9,45.5s3.9,6.6,10.1,7.4s141.9,7,141.9,7l38.3,105H759.3L738.9,183L717.9,236.7z"/>
</g>
</svg>
